{
    "asset" : {
        "generator" : "Khronos glTF Blender I/O v1.6.16",
        "version" : "2.0"
    },
    "scene" : 0,
    "scenes" : [
        {
            "name" : "Scene",
            "nodes" : [
                1,
                2,
                3,
                4,
                5,
                6,
                7,
                8,
                9,
                10,
                11,
                12,
                13,
                14,
                15
            ]
        }
    ],
    "nodes" : [
        {
            "camera" : 0,
            "name" : "Camera_Orientation",
            "rotation" : [
                -0.7071067690849304,
                0,
                0,
                0.7071067690849304
            ]
        },
        {
            "children" : [
                0
            ],
            "name" : "Camera",
            "rotation" : [
                0.7071068286895752,
                0,
                0,
                0.7071068286895752
            ],
            "translation" : [
                0,
                -2.416654069747892e-06,
                17.98656463623047
            ]
        },
        {
            "mesh" : 0,
            "name" : "Triangle.001",
            "rotation" : [
                -0.19787046313285828,
                0.7592514753341675,
                -0.5989058017730713,
                0.1603008657693863
            ],
            "translation" : [
                -1.513681411743164,
                1.1302074193954468,
                4.601642608642578
            ]
        },
        {
            "mesh" : 0,
            "name" : "Triangle.002",
            "rotation" : [
                -0.04278441518545151,
                0.19746679067611694,
                0.15683287382125854,
                -0.9667366743087769
            ],
            "translation" : [
                -3.9355714321136475,
                -1.332030177116394,
                4.313112735748291
            ]
        },
        {
            "mesh" : 0,
            "name" : "Triangle.003",
            "rotation" : [
                -0.7675278782844543,
                0.0977490097284317,
                0.2655814588069916,
                0.5751631259918213
            ],
            "translation" : [
                -4.440132141113281,
                1.7760404348373413,
                2.5049896240234375
            ]
        },
        {
            "mesh" : 0,
            "name" : "Triangle.004",
            "rotation" : [
                -0.9081563949584961,
                -0.38629797101020813,
                -0.031189562752842903,
                0.15828149020671844
            ],
            "translation" : [
                3.3502817153930664,
                2.58333158493042,
                -0.4233613610267639
            ]
        },
        {
            "mesh" : 0,
            "name" : "Triangle.005",
            "rotation" : [
                -0.16265438497066498,
                0.6091446280479431,
                0.5928893685340881,
                -0.5009676218032837
            ],
            "translation" : [
                -2.0586066246032715,
                3.6126275062561035,
                1.5193681716918945
            ]
        },
        {
            "mesh" : 0,
            "name" : "Triangle.006",
            "rotation" : [
                0.5558063387870789,
                0.4020196199417114,
                -0.7257925271987915,
                0.05181627348065376
            ],
            "translation" : [
                2.8860859870910645,
                -0.44401025772094727,
                -4.484961986541748
            ]
        },
        {
            "mesh" : 0,
            "name" : "Triangle.007",
            "rotation" : [
                -0.3619067668914795,
                -0.3607083857059479,
                -0.42628899216651917,
                0.7464520335197449
            ],
            "translation" : [
                4.440132141113281,
                -4.884111404418945,
                1.665112018585205
            ]
        },
        {
            "mesh" : 0,
            "name" : "Triangle.008",
            "rotation" : [
                -0.25334131717681885,
                -0.6495172381401062,
                0.19984827935695648,
                0.6884810924530029
            ],
            "translation" : [
                0.5852901935577393,
                -3.1686177253723145,
                0.8343860507011414
            ]
        },
        {
            "mesh" : 0,
            "name" : "Triangle.009",
            "rotation" : [
                -0.08045334368944168,
                -0.48792529106140137,
                0.7075195908546448,
                0.504848837852478
            ],
            "translation" : [
                -4.319037437438965,
                -4.419919013977051,
                1.4760322570800781
            ]
        },
        {
            "mesh" : 0,
            "name" : "Triangle.010",
            "rotation" : [
                0.6739122867584229,
                -0.09361792355775833,
                -0.4080539643764496,
                -0.6087445616722107
            ],
            "translation" : [
                1.2109456062316895,
                4.783198356628418,
                1.958795189857483
            ]
        },
        {
            "mesh" : 0,
            "name" : "Triangle.011",
            "rotation" : [
                -0.7376431822776794,
                -0.3564109802246094,
                0.25120440125465393,
                -0.5155096650123596
            ],
            "translation" : [
                -4.716599464416504,
                4.970914363861084,
                0.23988047242164612
            ]
        },
        {
            "mesh" : 0,
            "name" : "Triangle.012",
            "rotation" : [
                -0.6015740036964417,
                -0.2881147861480713,
                0.0537755973637104,
                -0.7431061863899231
            ],
            "translation" : [
                5.003216743469238,
                5.055680751800537,
                -3.280426263809204
            ]
        },
        {
            "mesh" : 0,
            "name" : "Triangle.013",
            "rotation" : [
                0.4927126169204712,
                -0.4942394495010376,
                -0.5349414944648743,
                0.47623443603515625
            ],
            "translation" : [
                -2.6963462829589844,
                2.8800137042999268,
                3.2971811294555664
            ]
        },
        {
            "mesh" : 0,
            "name" : "Triangle.014",
            "rotation" : [
                0.824061930179596,
                0.44761618971824646,
                0.1623842716217041,
                0.3069092929363251
            ],
            "translation" : [
                0.8779466152191162,
                -4.38162899017334,
                -0.928389847278595
            ]
        }
    ],
    "cameras" : [
        {
            "name" : "Camera",
            "perspective" : {
                "aspectRatio" : 1,
                "yfov" : 0.6911112070083618,
                "zfar" : 100,
                "znear" : 0.10000000149011612
            },
            "type" : "perspective"
        }
    ],
    "meshes" : [
        {
            "name" : "Triangle",
            "primitives" : [
                {
                    "attributes" : {
                        "POSITION" : 0
                    },
                    "indices" : 1
                }
            ]
        }
    ],
    "accessors" : [
        {
            "bufferView" : 0,
            "componentType" : 5126,
            "count" : 3,
            "max" : [
                0.360441654920578,
                0,
                0.360441654920578
            ],
            "min" : [
                -0.7208834290504456,
                0,
                -0.7208834290504456
            ],
            "type" : "VEC3"
        },
        {
            "bufferView" : 1,
            "componentType" : 5123,
            "count" : 3,
            "type" : "SCALAR"
        }
    ],
    "bufferViews" : [
        {
            "buffer" : 0,
            "byteLength" : 36,
            "byteOffset" : 0
        },
        {
            "buffer" : 0,
            "byteLength" : 6,
            "byteOffset" : 36
        }
    ],
    "buffers" : [
        {
            "byteLength" : 44,
            "uri" : "data:application/octet-stream;base64,"
        }
    ]
}
